<svg id="bfcfb165-100a-4cae-9e38-73aa7836e8bc" data-name="artwork" xmlns="http://www.w3.org/2000/svg" width="760" height="266"><defs><style>.b98884fc-407d-4574-a869-6faf45a5156e{fill:#e8e8e8}.ef9c9d58-7f40-45aa-90dc-7973c4ae4477{fill:#06c}.a8923b1b-bffa-45ea-a622-aa1a93724478{font-size:12px;fill:#151515}.f99242a8-e9a6-4ec2-82a0-9046958bb72c{fill:#151515}.a8923b1b-bffa-45ea-a622-aa1a93724478{font-family:RedHatText,&quot;Red Hat Text&quot;,Overpass,&quot;Helvetica Neue&quot;,Arial,sans-serif;font-weight:500}.b39bb757-8645-416e-ad9a-8519f651186d{fill:none;stroke:#151515;stroke-linecap:round;stroke-linejoin:round}</style></defs><path class="b98884fc-407d-4574-a869-6faf45a5156e" d="M278 176.5h204v49H278z"/><path class="ef9c9d58-7f40-45aa-90dc-7973c4ae4477" d="M481.5 177v48h-203v-48h203m1-1h-205v50h205v-50z"/><path class="b98884fc-407d-4574-a869-6faf45a5156e" d="M555.5 176.5h204v49h-204z"/><path class="ef9c9d58-7f40-45aa-90dc-7973c4ae4477" d="M759 177v48H556v-48h203m1-1H555v50h205v-50z"/><text class="a8923b1b-bffa-45ea-a622-aa1a93724478" transform="translate(322.642 204.222)">OAuth authorization</text><path class="b98884fc-407d-4574-a869-6faf45a5156e" d="M.5 176.5h204v49H.5z"/><path class="ef9c9d58-7f40-45aa-90dc-7973c4ae4477" d="M204 177v48H1v-48h203m1-1H0v50h205v-50z"/><text class="a8923b1b-bffa-45ea-a622-aa1a93724478" transform="translate(44.452 204.222)">Simple authorization</text><path class="b39bb757-8645-416e-ad9a-8519f651186d" d="M380 66v20.324"/><path class="f99242a8-e9a6-4ec2-82a0-9046958bb72c" d="M375.014 84.865L380 93.5l4.986-8.635h-9.972z"/><path class="b39bb757-8645-416e-ad9a-8519f651186d" d="M380 146v20.324"/><path class="f99242a8-e9a6-4ec2-82a0-9046958bb72c" d="M375.014 164.865L380 173.5l4.986-8.635h-9.972z"/><path class="b39bb757-8645-416e-ad9a-8519f651186d" d="M102.5 166.324V121h175"/><path class="f99242a8-e9a6-4ec2-82a0-9046958bb72c" d="M107.486 164.865L102.5 173.5l-4.986-8.635h9.972z"/><g><path class="b39bb757-8645-416e-ad9a-8519f651186d" d="M657.5 166.324V121h-175"/><path class="f99242a8-e9a6-4ec2-82a0-9046958bb72c" d="M662.486 164.865L657.5 173.5l-4.986-8.635h9.972z"/></g><g><path class="b98884fc-407d-4574-a869-6faf45a5156e" d="M277.5 16h205v50h-205z"/><text class="a8923b1b-bffa-45ea-a622-aa1a93724478" transform="translate(363.681 44.759)">Kafka</text></g><path class="ef9c9d58-7f40-45aa-90dc-7973c4ae4477" d="M277.5 96h205v50h-205z"/><text transform="translate(338.858 124.759)" fill="#fff" font-family="RedHatText,&quot;Red Hat Text&quot;,Overpass,&quot;Helvetica Neue&quot;,Arial,sans-serif" font-weight="700" font-size="12">Authorization</text><text class="a8923b1b-bffa-45ea-a622-aa1a93724478" transform="translate(605.535 204.222)">OPA authorization</text><g><text transform="translate(690.972 249.017)" font-size="10" fill="#f3f3f3" font-family="RedHatText,&quot;Red Hat Text&quot;,Overpass,&quot;Helvetica Neue&quot;,Arial,sans-serif">117_AMQ_0920</text><path fill="none" d="M0 226h760v40H0z"/></g></svg>