<svg id="b0a1ef24-630a-4de3-a544-b9d2bedff0fa" data-name="artwork" xmlns="http://www.w3.org/2000/svg" width="760" height="672.21"><defs><style>.afa01ad1-2a45-43f5-8969-81079d8c08ad,.b8893dee-d487-4eab-aa7f-81bb191a7c0f{fill:none}.afa01ad1-2a45-43f5-8969-81079d8c08ad{stroke:#d9e8f7;stroke-miterlimit:10;stroke-width:1.5px}.b8893dee-d487-4eab-aa7f-81bb191a7c0f{stroke:#151515;stroke-linecap:round;stroke-linejoin:round}.bfb282b1-09f0-45ed-a464-05e72e98363d,.e7aba5cd-32f3-4ce5-a839-90bc5df11d18,.f7debca3-bfe7-4e27-bf25-bfe1516ee013{fill:#151515}.ea240ad2-f3b0-4fe3-81e3-328bf185e47e{fill:#e8e8e8}.bfb282b1-09f0-45ed-a464-05e72e98363d,.f7debca3-bfe7-4e27-bf25-bfe1516ee013{font-size:12px}.f7debca3-bfe7-4e27-bf25-bfe1516ee013{font-family:RedHatText,&quot;Red Hat Text&quot;,Overpass,&quot;Helvetica Neue&quot;,Arial,sans-serif;font-weight:500}.f586dfac-6acd-4191-abbf-38391872defe{fill:#06c}.ac02b63c-4e13-44aa-9d29-f99e478a0907{fill:#fff}.bfb282b1-09f0-45ed-a464-05e72e98363d{font-family:RedHatText,&quot;Red Hat Text&quot;,Overpass,&quot;Helvetica Neue&quot;,Arial,sans-serif;font-weight:700}</style></defs><path class="afa01ad1-2a45-43f5-8969-81079d8c08ad" d="M353.75 106v50h-205"/><path class="afa01ad1-2a45-43f5-8969-81079d8c08ad" d="M348.75 101v50h-205"/><path class="b8893dee-d487-4eab-aa7f-81bb191a7c0f" d="M102.5 181.324V121h36.25"/><path class="e7aba5cd-32f3-4ce5-a839-90bc5df11d18" d="M107.486 179.865L102.5 188.5l-4.986-8.635h9.972z"/><path class="b8893dee-d487-4eab-aa7f-81bb191a7c0f" d="M380 181.324V121h-42.5"/><path class="e7aba5cd-32f3-4ce5-a839-90bc5df11d18" d="M384.986 179.865L380 188.5l-4.986-8.635h9.972z"/><path class="b8893dee-d487-4eab-aa7f-81bb191a7c0f" d="M380 424.5v30.324"/><path class="e7aba5cd-32f3-4ce5-a839-90bc5df11d18" d="M375.014 453.365L380 462l4.986-8.635h-9.972z"/><path class="b8893dee-d487-4eab-aa7f-81bb191a7c0f" d="M102.5 241v213.824"/><path class="e7aba5cd-32f3-4ce5-a839-90bc5df11d18" d="M97.514 453.365L102.5 462l4.986-8.635h-9.972z"/><path class="b8893dee-d487-4eab-aa7f-81bb191a7c0f" d="M241.25 66v20.324"/><path class="e7aba5cd-32f3-4ce5-a839-90bc5df11d18" d="M236.264 84.865l4.986 8.635 4.986-8.635h-9.972z"/><path class="ea240ad2-f3b0-4fe3-81e3-328bf185e47e" d="M138.75 16h205v50h-205z"/><text class="f7debca3-bfe7-4e27-bf25-bfe1516ee013" transform="translate(224.931 44.759)">Kafka</text><path class="f586dfac-6acd-4191-abbf-38391872defe" d="M138.75 96h205v50h-205z"/><text transform="translate(213.29 124.759)" font-family="RedHatText,&quot;Red Hat Text&quot;,Overpass,&quot;Helvetica Neue&quot;,Arial,sans-serif" font-weight="700" fill="#fff" font-size="12">Listeners</text><path class="ea240ad2-f3b0-4fe3-81e3-328bf185e47e" d="M278 191.5h204V424H278z"/><path class="f586dfac-6acd-4191-abbf-38391872defe" d="M481.5 192v231.5h-203V192h203m1-1h-205v233.5h205V191z"/><text class="bfb282b1-09f0-45ed-a464-05e72e98363d" transform="translate(330.566 219.222)">External listener</text><path class="ac02b63c-4e13-44aa-9d29-f99e478a0907" d="M292.5 234.5h175v40h-175z"/><text class="f7debca3-bfe7-4e27-bf25-bfe1516ee013" transform="translate(327.411 257.824)">Route (OpenShift)</text><path class="ac02b63c-4e13-44aa-9d29-f99e478a0907" d="M292.5 279.5h175v40h-175z"/><text class="f7debca3-bfe7-4e27-bf25-bfe1516ee013" transform="translate(351.303 302.824)">Node port</text><path class="ac02b63c-4e13-44aa-9d29-f99e478a0907" d="M292.5 324.5h175v40h-175zM292.5 369.5h175v40h-175z"/><text class="f7debca3-bfe7-4e27-bf25-bfe1516ee013" transform="translate(341.499 392.824)">Loadbalancer</text><text class="f7debca3-bfe7-4e27-bf25-bfe1516ee013" transform="translate(359.648 347.933)">Ingress</text><path class="ea240ad2-f3b0-4fe3-81e3-328bf185e47e" d="M.5 191.5h204v49H.5z"/><path class="f586dfac-6acd-4191-abbf-38391872defe" d="M204 192v48H1v-48h203m1-1H0v50h205v-50z"/><text class="bfb282b1-09f0-45ed-a464-05e72e98363d" transform="translate(55.058 219.222)">Internal listener</text><path class="ea240ad2-f3b0-4fe3-81e3-328bf185e47e" d="M0 464.5h482.5V656H0z"/><text class="bfb282b1-09f0-45ed-a464-05e72e98363d" transform="translate(172.46 492.722)">Authentication options</text><path class="ac02b63c-4e13-44aa-9d29-f99e478a0907" d="M15 511h452.5v40H15z"/><text class="f7debca3-bfe7-4e27-bf25-bfe1516ee013" transform="translate(229.844 534.324)">TLS</text><path class="ac02b63c-4e13-44aa-9d29-f99e478a0907" d="M15 556h452.5v40H15z"/><text class="f7debca3-bfe7-4e27-bf25-bfe1516ee013" transform="translate(192.495 579.324)">SCRAM-SHA-512</text><path class="ac02b63c-4e13-44aa-9d29-f99e478a0907" d="M15 601h452.5v40H15z"/><text class="f7debca3-bfe7-4e27-bf25-bfe1516ee013" transform="translate(222.734 624.433)">OAuth</text><g><text transform="translate(690.972 655.679)" font-size="10" fill="#f3f3f3" font-family="RedHatText,&quot;Red Hat Text&quot;,Overpass,&quot;Helvetica Neue&quot;,Arial,sans-serif">117_AMQ_0920</text><path fill="none" d="M0 632.662h760v40H0z"/></g></svg>