<?xml version="1.0" encoding="UTF-8" standalone="no"?>
<!-- Created with Inkscape (http://www.inkscape.org/) -->

<svg
   xmlns:dc="http://purl.org/dc/elements/1.1/"
   xmlns:cc="http://creativecommons.org/ns#"
   xmlns:rdf="http://www.w3.org/1999/02/22-rdf-syntax-ns#"
   xmlns:svg="http://www.w3.org/2000/svg"
   xmlns="http://www.w3.org/2000/svg"
   xmlns:sodipodi="http://sodipodi.sourceforge.net/DTD/sodipodi-0.dtd"
   xmlns:inkscape="http://www.inkscape.org/namespaces/inkscape"
   width="297mm"
   height="210mm"
   viewBox="0 0 1052.3622 744.09448"
   id="svg3516"
   version="1.1"
   inkscape:version="0.91 r13725"
   sodipodi:docname="strimzi (copy).svg"
   inkscape:export-filename="/home/ppatiern/Documents/strimzi.svg.png"
   inkscape:export-xdpi="90"
   inkscape:export-ydpi="90">
  <defs
     id="defs3518" />
  <sodipodi:namedview
     id="base"
     pagecolor="#ffffff"
     bordercolor="#666666"
     borderopacity="1.0"
     inkscape:pageopacity="0.0"
     inkscape:pageshadow="2"
     inkscape:zoom="1"
     inkscape:cx="361.01395"
     inkscape:cy="396"
     inkscape:document-units="px"
     inkscape:current-layer="layer1"
     showgrid="false"
     inkscape:window-width="1920"
     inkscape:window-height="1043"
     inkscape:window-x="1920"
     inkscape:window-y="0"
     inkscape:window-maximized="1" />
  <metadata
     id="metadata3521">
    <rdf:RDF>
      <cc:Work
         rdf:about="">
        <dc:format>image/svg+xml</dc:format>
        <dc:type
           rdf:resource="http://purl.org/dc/dcmitype/StillImage" />
        <dc:title />
      </cc:Work>
    </rdf:RDF>
  </metadata>
  <g
     inkscape:label="Layer 1"
     inkscape:groupmode="layer"
     id="layer1"
     transform="translate(0,-308.26772)">
    <path
       inkscape:connector-curvature="0"
       style="font-style:normal;font-weight:normal;font-size:708.83685303px;line-height:125%;font-family:sans-serif;letter-spacing:0px;word-spacing:0px;fill:#4a86e8;fill-opacity:1;stroke:none;stroke-width:1px;stroke-linecap:butt;stroke-linejoin:miter;stroke-opacity:1"
       d="m 122.79311,478.8583 c -15.38437,0 -29.81797,2.95528 -43.3009,8.86707 -13.48294,5.9118 -25.324389,13.9974 -35.523021,24.2561 -10.025772,10.08482 -17.976982,21.90909 -23.854161,35.47144 -5.877178,13.56235 -8.816198,28.08078 -8.816198,43.55576 0,15.47499 2.93902,30.08099 8.816198,43.81721 5.877179,13.56235 13.828389,25.47261 23.854161,35.73131 10.198632,10.08483 22.040081,18.08285 35.523021,23.99465 13.48293,5.91179 27.91653,8.86707 43.3009,8.86707 l 74.41514,0 c 5.18574,0 10.02589,0.95695 14.52016,2.86959 4.49432,1.91265 8.3832,4.60679 11.6675,8.08431 3.45716,3.30365 6.13602,7.21588 8.03746,11.73667 1.90144,4.52078 2.85266,9.38998 2.85266,14.60626 0,5.21629 -0.95122,10.08548 -2.85266,14.60626 -1.90144,4.52079 -4.5803,8.51901 -8.03746,11.99654 -3.2843,3.30365 -7.17318,5.9118 -11.6675,7.82444 -4.49431,1.91264 -9.33442,2.8696 -14.52016,2.8696 l -87.86572,0 0,74.85352 87.86572,0 c 15.38437,0 29.81797,-2.95526 43.3009,-8.86708 13.65579,-5.91174 25.49589,-13.9114 35.52166,-23.99621 10.19863,-10.25868 18.14984,-22.16896 23.85416,-35.73132 5.87718,-13.56234 8.8162,-28.08076 8.8162,-43.55575 0,-15.47498 -2.93902,-29.99341 -8.8162,-43.55576 -5.70432,-13.73622 -13.65553,-25.64649 -23.85416,-35.7313 -10.02577,-10.25871 -21.86587,-18.25674 -35.52166,-23.99466 -13.48293,-5.91178 -27.91653,-8.86865 -43.3009,-8.86865 l -74.41514,0 c -5.18574,0 -10.02585,-0.95537 -14.52016,-2.86801 -4.49431,-1.91264 -8.46992,-4.5208 -11.92708,-7.82444 -3.28431,-3.47753 -5.8778,-7.47734 -7.77924,-11.99812 -1.90144,-4.69466 -2.85266,-9.64984 -2.85266,-14.86613 0,-5.21628 0.95122,-10.08548 2.85266,-14.60626 1.90144,-4.52079 4.49493,-8.43302 7.77924,-11.73667 3.45716,-3.47752 7.43277,-6.17166 11.92708,-8.0843 4.49431,-1.91265 9.33442,-2.8696 14.52016,-2.8696 l 93.01247,0 0,-74.85354 -93.01247,0 z m 99.97084,0 0,74.85354 27.83348,0 0,-74.85354 -27.83348,0 z m 34.79185,0 0,74.85354 18.09176,0 0,-74.85354 -18.09176,0 z m 25.05013,0 0,74.85354 10.7977,0 0,-74.85354 -10.7977,0 z m -250.563818,299.15428 0,74.85352 10.500068,0 0,-74.85352 -10.500068,0 z m 17.458438,0 0,74.85352 18.09176,0 0,-74.85352 -18.09176,0 z m 25.05013,0 0,74.85352 27.83348,0 0,-74.85352 -27.83348,0 z"
       id="text3336" />
    <path
       style="font-style:normal;font-weight:normal;font-size:285.82568359px;line-height:125%;font-family:sans-serif;letter-spacing:0px;word-spacing:0px;fill:#4a86e8;fill-opacity:1;stroke:none;stroke-width:1px;stroke-linecap:butt;stroke-linejoin:miter;stroke-opacity:1"
       d="M 586.12695 319.9375 C 582.72811 319.9375 579.50787 320.66345 576.4668 322.11523 C 573.51517 323.47024 570.92163 325.35769 568.68555 327.77734 C 566.53891 330.10021 564.79477 332.90654 563.45312 336.19727 C 562.20092 339.3912 561.57617 342.78025 561.57617 346.36133 C 561.57617 350.03919 562.20093 353.47403 563.45312 356.66797 C 564.79477 359.86191 566.53891 362.66824 568.68555 365.08789 C 570.92163 367.41075 573.51517 369.29821 576.4668 370.75 C 579.50787 372.105 582.72811 372.7832 586.12695 372.7832 C 589.5258 372.7832 592.70072 372.105 595.65234 370.75 C 598.69342 369.29821 601.33228 367.41075 603.56836 365.08789 C 605.80444 362.66824 607.54858 359.86191 608.80078 356.66797 C 610.14243 353.47403 610.81445 350.03919 610.81445 346.36133 C 610.81445 342.78025 610.14243 339.3912 608.80078 336.19727 C 607.54858 332.90654 605.80444 330.10021 603.56836 327.77734 C 601.33228 325.35769 598.69342 323.47024 595.65234 322.11523 C 592.70072 320.66345 589.5258 319.9375 586.12695 319.9375 z M 992.91602 319.9375 C 989.51717 319.9375 986.29693 320.66345 983.25586 322.11523 C 980.30423 323.47024 977.71069 325.35769 975.47461 327.77734 C 973.32797 330.10021 971.58384 332.90654 970.24219 336.19727 C 968.98998 339.3912 968.36328 342.78025 968.36328 346.36133 C 968.36328 350.03919 968.98998 353.47403 970.24219 356.66797 C 971.58384 359.86191 973.32797 362.66824 975.47461 365.08789 C 977.71069 367.41075 980.30423 369.29821 983.25586 370.75 C 986.29693 372.105 989.51717 372.7832 992.91602 372.7832 C 996.31486 372.7832 999.4898 372.105 1002.4414 370.75 C 1005.4825 369.29821 1008.1213 367.41075 1010.3574 365.08789 C 1012.5935 362.66824 1014.3376 359.86191 1015.5898 356.66797 C 1016.9315 353.47403 1017.6016 350.03919 1017.6016 346.36133 C 1017.6016 342.78025 1016.9315 339.3912 1015.5898 336.19727 C 1014.3376 332.90654 1012.5935 330.10021 1010.3574 327.77734 C 1008.1213 325.35769 1005.4825 323.47024 1002.4414 322.11523 C 999.4898 320.66345 996.31486 319.9375 992.91602 319.9375 z M 341.41016 326.76172 L 341.41016 388.89844 L 323.56641 388.89844 L 323.56641 428.38672 L 341.41016 428.38672 L 341.41016 474.55273 C 341.41016 484.13454 343.0656 493.13626 346.375 501.55664 C 349.77384 509.97702 354.37955 517.38166 360.19336 523.76953 C 366.09662 530.06062 372.93914 535.04479 380.7207 538.72266 C 388.50227 542.30374 396.8209 544.09375 405.67578 544.09375 L 433.44727 544.09375 L 433.44727 504.60547 L 405.67578 504.60547 C 401.82972 504.60547 398.20744 503.83178 394.80859 502.2832 C 391.40975 500.63784 388.45754 498.46001 385.95312 495.75 C 383.44871 493.03999 381.48187 489.89358 380.05078 486.3125 C 378.61969 482.63463 377.9043 478.71453 377.9043 474.55273 L 377.9043 428.38672 L 433.44727 428.38672 L 433.44727 388.89844 L 377.9043 388.89844 L 377.9043 326.76172 L 341.41016 326.76172 z M 687.28711 385.84961 C 680.66831 385.84961 674.27315 387.15631 668.10156 389.76953 C 662.01942 392.28597 656.4303 395.86599 651.33203 400.51172 L 641.4043 388.60742 L 632.54883 388.60742 L 632.54883 544.09375 L 669.17578 544.09375 L 669.17578 445.37305 C 669.17578 442.66304 669.62315 440.09738 670.51758 437.67773 C 671.50145 435.25809 672.79822 433.128 674.4082 431.28906 C 676.10763 429.45013 678.0311 428.04794 680.17773 427.08008 C 682.41382 426.01543 684.7827 425.48242 687.28711 425.48242 C 689.79152 425.48242 692.16236 426.01543 694.39844 427.08008 C 696.63452 428.04794 698.60331 429.45013 700.30273 431.28906 C 702.00216 433.128 703.29893 435.25809 704.19336 437.67773 C 705.17724 440.09738 705.66797 442.66304 705.66797 445.37305 L 705.66797 544.09375 L 742.29492 544.09375 L 742.29492 445.37305 C 742.29492 442.66304 742.74229 440.09738 743.63672 437.67773 C 744.62059 435.25809 745.91736 433.128 747.52734 431.28906 C 749.22677 429.45013 751.15024 428.04794 753.29688 427.08008 C 755.53296 426.01543 757.90379 425.48242 760.4082 425.48242 C 762.91262 425.48242 765.2815 426.01543 767.51758 427.08008 C 769.75366 428.04794 771.72244 429.45013 773.42188 431.28906 C 775.1213 433.128 776.41807 435.25809 777.3125 437.67773 C 778.29638 440.09738 778.78906 442.66304 778.78906 445.37305 L 778.78906 544.09375 L 815.28125 544.09375 L 815.28125 445.37305 C 815.28125 437.14624 813.85047 429.40348 810.98828 422.14453 C 808.1261 414.88558 804.19046 408.59276 799.18164 403.26953 C 794.26226 397.84952 788.44848 393.59129 781.74023 390.49414 C 775.12143 387.39699 768.01088 385.84961 760.4082 385.84961 C 757.0988 385.84961 753.74455 386.18773 750.3457 386.86523 C 746.94686 387.44595 743.63793 388.46227 740.41797 389.91406 C 737.28745 391.36585 734.28992 393.25331 731.42773 395.57617 C 728.56555 397.89903 726.01733 400.70537 723.78125 403.99609 C 718.95131 397.31786 713.31687 392.62407 706.87695 389.91406 C 700.52648 387.20406 693.99536 385.84961 687.28711 385.84961 z M 453.8418 388.60742 L 453.8418 544.09375 L 490.46875 544.09375 L 490.46875 458.43945 C 490.46875 454.27766 491.18414 450.35755 492.61523 446.67969 C 494.04633 443.00182 496.01317 439.80766 498.51758 437.09766 C 501.02199 434.38765 503.9742 432.25756 507.37305 430.70898 C 510.77189 429.16041 514.39417 428.38672 518.24023 428.38672 L 550.57422 428.38672 L 550.57422 388.89844 L 518.24023 388.89844 C 510.19034 388.89844 502.40777 390.49552 494.89453 393.68945 C 487.3813 396.7866 480.67474 401.23776 474.77148 407.04492 L 462.69531 388.60742 L 453.8418 388.60742 z M 567.61328 388.60742 L 567.61328 544.09375 L 604.50781 544.09375 L 604.50781 388.60742 L 567.61328 388.60742 z M 974.40039 388.60742 L 974.40039 395.09375 L 1011.2969 395.09375 L 1011.2969 388.60742 L 974.40039 388.60742 z M 834.19922 388.89844 L 834.19922 428.38672 L 894.70703 428.38672 L 834.19922 544.09375 L 954.00781 544.09375 L 954.00781 504.60547 L 893.5 504.60547 L 954.00781 388.89844 L 834.19922 388.89844 z M 974.40039 401.09375 L 974.40039 412.09375 L 1011.2969 412.09375 L 1011.2969 401.09375 L 974.40039 401.09375 z M 974.40039 418.09375 L 974.40039 436.09375 L 1011.2969 436.09375 L 1011.2969 418.09375 L 974.40039 418.09375 z M 974.40039 442.09375 L 974.40039 544.09375 L 1011.2969 544.09375 L 1011.2969 442.09375 L 974.40039 442.09375 z "
       transform="translate(0,308.26772)"
       id="text3548" />
  </g>
</svg>
