<?xml version="1.0" encoding="UTF-8" standalone="no"?>
<!-- Created with Inkscape (http://www.inkscape.org/) -->

<svg
   xmlns:dc="http://purl.org/dc/elements/1.1/"
   xmlns:cc="http://creativecommons.org/ns#"
   xmlns:rdf="http://www.w3.org/1999/02/22-rdf-syntax-ns#"
   xmlns:svg="http://www.w3.org/2000/svg"
   xmlns="http://www.w3.org/2000/svg"
   xmlns:sodipodi="http://sodipodi.sourceforge.net/DTD/sodipodi-0.dtd"
   xmlns:inkscape="http://www.inkscape.org/namespaces/inkscape"
   width="210mm"
   height="297mm"
   viewBox="0 0 744.09448819 1052.3622047"
   id="svg2"
   version="1.1"
   inkscape:version="0.91 r13725"
   sodipodi:docname="strimzi_logo.svg"
   inkscape:export-filename="/home/ppatiern/Documents/strimzi_logo.svg.png"
   inkscape:export-xdpi="90"
   inkscape:export-ydpi="90">
  <defs
     id="defs4" />
  <sodipodi:namedview
     id="base"
     pagecolor="#ffffff"
     bordercolor="#666666"
     borderopacity="1.0"
     inkscape:pageopacity="0.0"
     inkscape:pageshadow="2"
     inkscape:zoom="1"
     inkscape:cx="218.54495"
     inkscape:cy="606.66216"
     inkscape:document-units="px"
     inkscape:current-layer="layer1"
     showgrid="false"
     inkscape:snap-bbox="true"
     inkscape:window-width="1920"
     inkscape:window-height="1043"
     inkscape:window-x="1920"
     inkscape:window-y="0"
     inkscape:window-maximized="1" />
  <metadata
     id="metadata7">
    <rdf:RDF>
      <cc:Work
         rdf:about="">
        <dc:format>image/svg+xml</dc:format>
        <dc:type
           rdf:resource="http://purl.org/dc/dcmitype/StillImage" />
        <dc:title />
      </cc:Work>
    </rdf:RDF>
  </metadata>
  <g
     inkscape:label="Layer 1"
     inkscape:groupmode="layer"
     id="layer1">
    <path
       style="font-style:normal;font-weight:normal;font-size:708.83685303px;line-height:125%;font-family:sans-serif;letter-spacing:0px;word-spacing:0px;fill:#4a86e8;fill-opacity:1;stroke:none;stroke-width:1px;stroke-linecap:butt;stroke-linejoin:miter;stroke-opacity:1"
       d="M 310.33008 207.7832 C 288.22092 207.7832 267.47813 211.42592 248.10156 218.71289 C 228.72499 225.99986 211.70742 235.9663 197.05078 248.61133 C 182.64256 261.04204 171.21573 275.61682 162.76953 292.33398 C 154.32333 309.05114 150.09961 326.94678 150.09961 346.02148 C 150.09961 365.09619 154.32333 383.09977 162.76953 400.03125 C 171.21573 416.74841 182.64256 431.42919 197.05078 444.07422 C 211.70742 456.50493 228.72499 466.36342 248.10156 473.65039 C 267.47813 480.93736 288.22092 484.58008 310.33008 484.58008 L 417.27344 484.58008 C 424.72596 484.58008 431.68182 485.75964 438.14062 488.11719 C 444.59949 490.47474 450.18827 493.79558 454.9082 498.08203 C 459.87655 502.15416 463.72639 506.97644 466.45898 512.54883 C 469.19158 518.12121 470.55859 524.12306 470.55859 530.55273 C 470.55859 536.98241 469.19158 542.98425 466.45898 548.55664 C 463.72639 554.12903 459.87655 559.0573 454.9082 563.34375 C 450.18827 567.41588 444.5995 570.63073 438.14062 572.98828 C 431.68177 575.34583 424.72596 576.52539 417.27344 576.52539 L 291 576.52539 L 291 668.79102 L 417.27344 668.79102 C 439.3826 668.79102 460.12538 665.1483 479.50195 657.86133 C 499.12694 650.57436 516.14256 640.71391 530.55078 628.2832 C 545.20742 615.63817 556.63425 600.95739 564.83203 584.24023 C 573.27823 567.52307 577.50195 549.62744 577.50195 530.55273 C 577.50195 511.47803 573.27823 493.58239 564.83203 476.86523 C 556.63425 459.93375 545.20742 445.25297 530.55078 432.82227 C 516.14256 420.17723 499.12694 410.31874 479.50195 403.24609 C 460.12538 395.95913 439.3826 392.31445 417.27344 392.31445 L 310.33008 392.31445 C 302.87755 392.31445 295.92175 391.13685 289.46289 388.7793 C 283.00403 386.42175 277.29062 383.20689 272.32227 379.13477 C 267.60233 374.84831 263.87517 369.91809 261.14258 364.3457 C 258.40999 358.55899 257.04297 352.45116 257.04297 346.02148 C 257.04297 339.59181 258.40999 333.58996 261.14258 328.01758 C 263.87517 322.44519 267.60233 317.62291 272.32227 313.55078 C 277.29062 309.26433 283.00403 305.94349 289.46289 303.58594 C 295.92175 301.22839 302.87755 300.04883 310.33008 300.04883 L 444 300.04883 L 444 207.7832 L 310.33008 207.7832 z M 454 207.7832 L 454 300.04883 L 494 300.04883 L 494 207.7832 L 454 207.7832 z M 504 207.7832 L 504 300.04883 L 530 300.04883 L 530 207.7832 L 504 207.7832 z M 540 207.7832 L 540 300.04883 L 555.51758 300.04883 L 555.51758 207.7832 L 540 207.7832 z M 179.91016 576.52539 L 179.91016 668.79102 L 195 668.79102 L 195 576.52539 L 179.91016 576.52539 z M 205 576.52539 L 205 668.79102 L 231 668.79102 L 231 576.52539 L 205 576.52539 z M 241 576.52539 L 241 668.79102 L 281 668.79102 L 281 576.52539 L 241 576.52539 z "
       id="text3336" />
  </g>
</svg>
